<?xml version="1.0" encoding="UTF-8"?>
<svg version="1.1" xmlns="http://www.w3.org/2000/svg" width="500" height="500">
<path d="M0 0 C165 0 330 0 500 0 C500 165 500 330 500 500 C335 500 170 500 0 500 C0 335 0 170 0 0 Z " fill="#9002F0" transform="translate(0,0)"/>
<path d="M0 0 C12.21 0 24.42 0 37 0 C37 19.14 37 38.28 37 58 C56.8 58 76.6 58 97 58 C97 68.23 97 78.46 97 89 C77.53 89 58.06 89 38 89 C38.04035007 107.71582361 38.09719587 126.43136208 38.18390274 145.1470232 C38.22364136 153.83784592 38.25606007 162.52857876 38.27099609 171.21948242 C38.28403954 178.79817424 38.31107256 186.37666788 38.35461307 193.95524806 C38.37716764 197.96474383 38.39291431 201.97399573 38.39188385 205.98356056 C38.39113366 209.76513483 38.40922681 213.54617124 38.44116783 217.3276062 C38.45361713 219.36152923 38.4466309 221.39554286 38.43885803 223.42948914 C38.54102325 232.4996746 39.46595849 240.96109542 45.625 248 C55.90326773 254.09082532 67.0429985 253.53835249 78.625 253.6875 C80.4101805 253.72072698 82.19533788 253.75522148 83.98046875 253.79101562 C88.32032928 253.87765165 92.65943205 253.93823529 97 254 C97 264.56 97 275.12 97 286 C90.01079267 286.09247022 83.02375841 286.17191663 76.03442383 286.21972656 C73.6632564 286.23968345 71.29213716 286.26685877 68.92114258 286.30175781 C48.45573449 286.59516868 29.61206079 285.7348665 13.77734375 270.96875 C1.587042 257.46564652 -0.32230982 239.53886178 -0.22705078 222.1652832 C-0.22648539 220.70555123 -0.22680572 219.24581868 -0.22793579 217.78608704 C-0.22850531 213.85706073 -0.21681663 209.92815866 -0.20278788 205.99916101 C-0.19021301 201.880566 -0.18910472 197.76196757 -0.18673706 193.64335632 C-0.18054203 185.85926583 -0.16415819 178.07523209 -0.14403808 170.29116648 C-0.12161727 161.42288981 -0.11067016 152.55461031 -0.10064721 143.68631232 C-0.07979002 125.45750292 -0.04313874 107.22877123 0 89 C-9.9 89 -19.8 89 -30 89 C-30 78.77 -30 68.54 -30 58 C-20.1 58 -10.2 58 0 58 C0 38.86 0 19.72 0 0 Z " fill="#D8D7D9" transform="translate(215,109)"/>
</svg>
